<svg width="32" height="33" viewBox="0 0 32 33" fill="none" xmlns="http://www.w3.org/2000/svg">
<path fill-rule="evenodd" clip-rule="evenodd" d="M25.2138 3.43277C24.3108 2.80718 23.3417 2.27756 22.3221 1.8543C20.4165 1.06324 18.3725 0.659532 16.3092 0.66672C7.6642 0.66672 0.618366 7.71255 0.618366 16.3576C0.618366 19.1284 1.3467 21.8201 2.70837 24.1951L0.491699 32.3334L8.8042 30.1484C11.1 31.3992 13.6809 32.0642 16.3092 32.0642C24.9542 32.0642 32 25.0184 32 16.3734C32 13.3431 31.1494 10.4449 29.5614 7.95322L25.128 9.14114C25.4423 9.31606 25.7763 9.46677 26.1074 9.6162C27.045 10.0393 27.9599 10.4522 28.3416 11.3755C28.9966 12.96 29.3306 14.6588 29.3242 16.3734C29.3559 23.5617 23.4975 29.4042 16.3092 29.4042C13.9659 29.4042 11.67 28.7709 9.6592 27.5834L9.1842 27.2984L4.2442 28.5967L5.55837 23.7834L5.2417 23.2926C3.9398 21.2136 3.2485 18.8105 3.2467 16.3576C3.2467 9.16922 9.10503 3.31089 16.2934 3.31089C19.2791 3.31089 21.1859 5.3087 23.2152 7.43497C23.4543 7.68545 23.6951 7.93771 23.9395 8.1887L25.2138 3.43277ZM22.9446 19.3976C23.1799 19.5122 23.3689 19.6044 23.4659 19.6509C23.5442 19.6885 23.6163 19.7217 23.6824 19.7522C23.9507 19.8759 24.1211 19.9545 24.21 20.0942C24.3209 20.2684 24.3209 21.0442 23.9884 21.9626C23.6717 22.8809 22.1042 23.72 21.3442 23.8309C20.6634 23.9259 19.8084 23.9734 18.8742 23.6726C18.3042 23.4984 17.5759 23.2609 16.6417 22.8492C12.8876 21.2295 10.3637 17.5403 9.98302 16.9839C9.96552 16.9583 9.95255 16.9394 9.9442 16.9276L9.94112 16.9234C9.73948 16.6546 8.34503 14.7958 8.34503 12.8742C8.34503 11.092 9.20762 10.1454 9.61468 9.69875C9.64881 9.66129 9.67975 9.62735 9.7067 9.59672C10.0709 9.20089 10.4825 9.10589 10.7517 9.10589H11.5117C11.5392 9.10772 11.568 9.10807 11.5978 9.10843C11.826 9.11118 12.1184 9.11471 12.3984 9.78672C12.715 10.5784 13.5067 12.5101 13.6017 12.7001C13.6967 12.8901 13.76 13.1117 13.6334 13.3809C13.6226 13.4025 13.6121 13.4235 13.6019 13.4441C13.4924 13.6643 13.4113 13.8273 13.2375 14.0301C13.1769 14.1008 13.113 14.1781 13.0484 14.2561C12.9108 14.4224 12.7703 14.5923 12.6517 14.7109C12.4459 14.9167 12.2559 15.1226 12.4775 15.5184C12.715 15.9142 13.4909 17.1967 14.6625 18.2417C15.9351 19.3789 17.0456 19.8563 17.5883 20.0896C17.6803 20.1291 17.756 20.1617 17.8134 20.1892C18.2092 20.3951 18.4467 20.3634 18.6684 20.0942C18.89 19.8409 19.6342 18.9542 19.9034 18.5584C20.1725 18.1784 20.4259 18.2417 20.79 18.3684C21.0531 18.476 22.2189 19.044 22.9446 19.3976Z" fill="url(#paint0_linear_75_156)"/>
<defs>
<linearGradient id="paint0_linear_75_156" x1="16.2459" y1="0.666626" x2="16.2459" y2="32.3334" gradientUnits="userSpaceOnUse">
<stop offset="0.255" stop-color="#B7E431"/>
<stop offset="1" stop-color="#B7E431" stop-opacity="0"/>
</linearGradient>
</defs>
</svg>
