<svg width="31" height="32" viewBox="0 0 31 32" fill="none" xmlns="http://www.w3.org/2000/svg">
<path d="M15.5 0.5C6.944 0.5 0 7.444 0 16C0 24.556 6.944 31.5 15.5 31.5C24.056 31.5 31 24.556 31 16C31 7.444 24.056 0.5 15.5 0.5ZM22.692 11.04C22.4595 13.489 21.452 19.441 20.9405 22.1845C20.7235 23.347 20.2895 23.7345 19.8865 23.781C18.9875 23.8585 18.3055 23.192 17.4375 22.6185C16.0735 21.7195 15.2985 21.1615 13.981 20.2935C12.4465 19.286 13.4385 18.728 14.322 17.829C14.5545 17.5965 18.5225 13.985 18.6 13.6595C18.6108 13.6102 18.6093 13.559 18.5958 13.5104C18.5823 13.4618 18.5571 13.4172 18.5225 13.3805C18.4295 13.303 18.3055 13.334 18.197 13.3495C18.0575 13.3805 15.8875 14.822 11.656 17.674C11.036 18.0925 10.478 18.3095 9.982 18.294C9.424 18.2785 8.37 17.984 7.5795 17.7205C6.603 17.4105 5.8435 17.24 5.9055 16.6975C5.9365 16.4185 6.324 16.1395 7.0525 15.845C11.5785 13.8765 14.5855 12.5745 16.089 11.9545C20.398 10.1565 21.2815 9.8465 21.8705 9.8465C21.9945 9.8465 22.289 9.8775 22.475 10.0325C22.63 10.1565 22.6765 10.327 22.692 10.451C22.6765 10.544 22.7075 10.823 22.692 11.04Z" fill="url(#paint0_linear_75_178)"/>
<defs>
<linearGradient id="paint0_linear_75_178" x1="15.5" y1="0.5" x2="15.5" y2="31.5" gradientUnits="userSpaceOnUse">
<stop offset="0.155" stop-color="#B7E431"/>
<stop offset="1" stop-color="#B7E431" stop-opacity="0"/>
</linearGradient>
</defs>
</svg>
