<svg width="29" height="32" viewBox="0 0 29 32" fill="none" xmlns="http://www.w3.org/2000/svg">
<path d="M25.8002 25.6H9.80019C8.9515 25.6 8.13757 25.2629 7.53745 24.6627C6.93734 24.0626 6.60019 23.2487 6.60019 22.4V3.2C6.60019 2.35131 6.93734 1.53737 7.53745 0.937258C8.13757 0.337142 8.9515 0 9.80019 0H11.4002V8L14.6002 5.6L17.8002 8V0H25.8002C26.6489 0 27.4628 0.337142 28.0629 0.937258C28.6631 1.53737 29.0002 2.35131 29.0002 3.2V22.4C29.0002 23.2487 28.6631 24.0626 28.0629 24.6627C27.4628 25.2629 26.6489 25.6 25.8002 25.6ZM22.6002 28.8V32H3.4002C2.5515 32 1.73757 31.6629 1.13745 31.0627C0.537337 30.4626 0.200195 29.6487 0.200195 28.8V6.4H3.4002V28.8H22.6002Z" fill="url(#paint0_linear_72_45)"/>
<defs>
<linearGradient id="paint0_linear_72_45" x1="14.6002" y1="0" x2="14.6002" y2="32" gradientUnits="userSpaceOnUse">
<stop stop-color="#B7E431"/>
<stop offset="1" stop-color="#B7E431" stop-opacity="0"/>
</linearGradient>
</defs>
</svg>
